# xmcd
# 
# Track frame offsets:
#     150
#     10290
#     26960
#     37210
#     47888
# 
# Disc length: 918
# 
# Revision: 0
# Processed by: cddbd v1.5.2PL0 Copyright (c) Steve Scherf et al.
# Submitted via: BonkEnc v1.0.8
# 
DISCID=42039405
DTITLE=Various Artist - Takie jest życie !
DYEAR=0
DGENRE=Rock
TTITLE0=Krzysztof Klenczon - Kwiaty we włosach
TTITLE1=Piotr Szczepanik - Kochać
TTITLE2=Skaldowie - Wszystko mi mówi, że mnie ktoś pokochał
TTITLE3=Kalina Jędrusik - Bo we mnie jest sex
TTITLE4=Skaldowie - Cała jesteś w skowronkach
EXTD=
EXTT0=
EXTT1=
EXTT2=
EXTT3=
EXTT4=
PLAYORDER=
